<?xml version="1.0" standalone="no"?>
<!DOCTYPE svg PUBLIC "-//W3C//DTD SVG 20010904//EN"
 "http://www.w3.org/TR/2001/REC-SVG-20010904/DTD/svg10.dtd">
<svg version="1.0" xmlns="http://www.w3.org/2000/svg"
 width="60.000000pt" height="60.000000pt" viewBox="0 0 60.000000 60.000000"
 preserveAspectRatio="xMidYMid meet">
<metadata>
Created by potrace 1.10, written by Peter Selinger 2001-2011
</metadata>
<g transform="translate(0.000000,60.000000) scale(0.100000,-0.100000)"
fill="#000000" stroke="none">
<path d="M350 490 c0 -5 -13 -16 -29 -24 -19 -10 -39 -37 -62 -85 -19 -39 -39
-71 -46 -71 -13 0 -14 -60 0 -60 17 0 5 -38 -15 -48 -54 -28 -113 -80 -113
-100 0 -11 -9 -30 -19 -41 -24 -27 -17 -56 14 -56 19 0 25 6 26 23 1 12 2 32
3 45 2 38 61 90 61 54 0 -16 42 -57 58 -57 6 0 15 -8 21 -17 7 -14 13 -15 21
-6 9 8 0 17 -36 35 -41 21 -49 29 -52 56 -4 38 15 43 44 11 49 -55 153 -69
219 -30 38 22 65 27 65 12 0 -5 15 -15 33 -21 24 -10 27 -14 15 -17 -13 -3
-18 -15 -18 -43 0 -21 -6 -41 -12 -43 -7 -3 -3 -6 10 -6 12 -1 31 8 42 19 17
17 19 28 14 58 -8 46 -32 75 -57 68 -11 -3 -20 2 -23 12 -3 9 -10 25 -15 34
-12 24 -11 44 3 68 10 15 9 22 -4 37 -9 10 -17 23 -18 28 -3 27 -73 135 -90
140 -11 4 -20 13 -20 21 0 8 -4 14 -10 14 -5 0 -10 -4 -10 -10z m48 -90 c12
-12 22 -25 22 -30 0 -5 14 -24 30 -42 17 -18 26 -34 20 -36 -6 -2 -7 -19 -4
-42 4 -23 2 -40 -5 -44 -6 -4 -11 -15 -11 -25 0 -38 -151 -36 -171 1 -11 21 1
118 22 185 17 54 59 68 97 33z"/>
<path d="M325 352 c-14 -14 -1 -22 36 -22 26 0 39 4 37 11 -4 12 -63 21 -73
11z"/>
<path d="M396 301 c-5 -7 -2 -18 7 -24 34 -28 21 -70 -22 -73 -9 -1 -32 -2
-51 -3 l-35 -3 30 -9 c42 -13 83 -2 102 27 12 19 18 22 24 12 7 -10 9 -11 9 0
0 7 -5 18 -10 25 -6 7 -18 23 -28 36 -14 17 -21 21 -26 12z"/>
<path d="M311 248 c-1 -34 25 -38 60 -8 l24 19 -37 -3 c-21 -1 -40 2 -42 8 -2
6 -5 -1 -5 -16z"/>
<path d="M408 42 c7 -5 10 -16 6 -25 -4 -12 -1 -17 10 -17 10 0 16 9 16 25 0
19 -5 25 -22 25 -16 0 -19 -3 -10 -8z"/>
</g>
</svg>
